# xmcd CD database file
#
# Track frame offsets:
#	150
#	18006
#	33040
#	52216
#	76229
#	101869
#	124379
#	143766
#	164826
#	183524
#	209284
#	230095
#	246603
#	266227
#
# Disc length: 3778 seconds
#
# Revision: 0
# Processed by: cddbd v1.5.1PL0 Copyright (c) Steve Scherf et al.
# Submitted via: CDex 1.50
#
DISCID=d20ec00e
DTITLE=Siggi Schwarz and The Electricguitar Legends - Legends
DYEAR=2003
DGENRE=Blues
TTITLE0=Born under a bad sign
TTITLE1=You don´t love me
TTITLE2=Messin´ with the kid
TTITLE3=I just wanna make love to You
TTITLE4=I can´t stand the rain
TTITLE5=Kiss
TTITLE6=Good morning little schoolgirl
TTITLE7=Chevrolet
TTITLE8=I´m so tore down
TTITLE9=Stormy monday blues
TTITLE10=Upsight down
TTITLE11=Still in love with you
TTITLE12=Superstitious
TTITLE13=Steppin´ out
EXTD=YEAR: 2003
EXTT0=
EXTT1=
EXTT2=
EXTT3=
EXTT4=
EXTT5=
EXTT6=
EXTT7=
EXTT8=
EXTT9=
EXTT10=
EXTT11=
EXTT12=
EXTT13=
PLAYORDER=
